<?xml version="1.0" standalone="no"?>
<!DOCTYPE svg PUBLIC "-//W3C//DTD SVG 20010904//EN"
 "http://www.w3.org/TR/2001/REC-SVG-20010904/DTD/svg10.dtd">
<svg version="1.0" xmlns="http://www.w3.org/2000/svg"
 width="866.000000pt" height="866.000000pt" viewBox="0 0 866.000000 866.000000"
 preserveAspectRatio="xMidYMid meet">
<metadata>
Created by potrace 1.11, written by Peter Selinger 2001-2013
</metadata>
<g transform="translate(0.000000,866.000000) scale(0.100000,-0.100000)"
fill="#000000" stroke="none">
<path d="M3059 8643 c0 -10 -2 -56 -3 -103 -6 -159 -22 -336 -41 -460 -2 -14
-7 -45 -10 -70 -9 -65 -54 -263 -77 -340 -108 -359 -274 -622 -498 -791 -95
-72 -278 -158 -370 -176 -14 -2 -44 -8 -67 -13 -23 -6 -80 -13 -127 -16 -84
-7 -86 -8 -87 -33 -2 -81 -1 -283 2 -285 2 -2 94 -6 204 -9 110 -3 211 -8 225
-11 14 -2 43 -7 65 -10 70 -10 165 -49 206 -84 46 -39 70 -87 96 -187 4 -16 9
-1240 10 -2720 2 -2372 0 -2698 -13 -2755 -30 -129 -78 -187 -182 -220 -98
-31 -175 -38 -449 -41 -142 -2 -163 -4 -164 -18 -1 -19 -1 -248 0 -275 1 -17
9 -18 169 -10 357 17 2101 8 2132 -11 14 -9 16 15 16 165 l-1 145 -95 2 c-163
3 -384 12 -410 18 -14 3 -41 8 -60 11 -53 10 -134 50 -161 81 -29 34 -55 91
-70 158 -14 59 -19 1674 -6 1682 4 2 13 0 20 -5 35 -29 326 -123 502 -163 99
-23 101 -23 195 -40 36 -7 100 -20 143 -31 192 -46 249 -53 457 -53 149 0 251
6 320 20 13 2 42 7 64 11 57 8 190 42 281 71 567 183 1055 599 1343 1145 42
78 139 299 152 343 1 6 4 15 6 20 8 24 56 202 60 220 2 11 8 40 14 65 34 155
45 279 45 510 0 250 -8 336 -52 550 -25 127 -101 374 -143 465 -108 238 -214
415 -350 586 -59 73 -281 292 -356 352 -262 206 -616 369 -894 413 -19 3 -37
7 -40 9 -3 2 -37 6 -75 10 -39 4 -79 9 -90 11 -57 12 -342 4 -425 -11 -14 -3
-43 -7 -65 -11 -133 -18 -344 -89 -503 -167 -193 -96 -344 -207 -514 -379 -65
-65 -118 -113 -119 -106 -1 19 -1 199 0 226 1 21 4 22 111 22 l110 0 1 48 c0
26 1 106 1 177 l1 130 -39 -1 c-22 -1 -63 -3 -91 -5 -29 -1 -56 1 -60 5 -5 4
-8 445 -8 979 l0 972 -117 3 c-107 2 -118 1 -119 -15z m1716 -2107 c355 -42
706 -307 950 -717 48 -81 143 -283 179 -380 66 -178 131 -435 150 -594 4 -27
8 -61 11 -75 25 -141 25 -607 -1 -779 -54 -362 -123 -596 -249 -856 -105 -216
-207 -365 -355 -519 -374 -390 -839 -521 -1300 -366 -124 41 -178 70 -294 158
-273 207 -473 462 -545 696 -28 92 -31 109 -30 196 0 41 -1 278 -2 525 -1 248
-2 761 -2 1140 l-2 690 37 75 c101 204 321 441 532 575 106 66 299 156 369
170 9 2 21 6 26 10 14 8 186 43 251 51 30 3 56 7 57 8 5 4 167 -2 218 -8z"/>
</g>
</svg>
